<svg version="1.1" id="Layer_1" xmlns="http://www.w3.org/2000/svg" xmlns:xlink="http://www.w3.org/1999/xlink" x="0px" y="0px"
	 width="100%" viewBox="0 0 640 640" enable-background="new 0 0 640 640" xml:space="preserve">
<path fill="#035ABA" opacity="1.000000" stroke="none" 
	d="
M1.000000,320.000000 
	C1.000000,213.702469 1.000000,107.404930 1.000000,1.053695 
	C214.225723,1.053695 427.451447,1.053695 641.000000,1.053695 
	C641.000000,107.023109 641.000000,213.046539 640.571716,319.749481 
	C626.254639,320.430389 612.365784,320.431793 598.389099,319.933960 
	C597.889771,313.134399 597.935425,306.763824 596.980225,300.546997 
	C594.236694,282.691650 592.439575,264.530609 587.717529,247.184738 
	C583.035217,229.984558 575.936829,213.322083 568.649658,196.980515 
	C558.904358,175.126785 544.915100,155.772720 529.081909,137.951324 
	C516.050537,123.283646 501.715332,109.909485 485.841888,98.161102 
	C461.528320,80.165962 435.114807,66.220261 406.337677,57.282963 
	C390.689941,52.423248 374.440796,49.128132 358.239441,46.510418 
	C334.331543,42.647530 310.191650,42.971764 286.173767,46.104229 
	C262.196289,49.231426 238.952637,55.022423 216.503387,64.386871 
	C198.127335,72.052254 180.819016,81.321991 164.425339,92.569618 
	C131.133408,115.411087 104.183601,144.070816 83.470207,178.731537 
	C60.704357,216.826721 47.550541,257.852722 44.868301,302.193390 
	C44.497112,308.329620 44.030571,314.460083 43.167320,320.628265 
	C37.248318,320.629242 31.769335,320.643616 26.292202,320.549866 
	C17.860802,320.405518 9.430670,320.187042 1.000000,320.000000 
z"/>
<path fill="#FDD404" opacity="1.000000" stroke="none" 
	d="
M1.000000,638.000000 
	C1.000000,533.311890 1.000000,428.623810 1.467933,323.438171 
	C13.901431,322.938477 25.867344,322.984436 37.832302,322.898224 
	C40.620747,322.878143 41.988132,323.514069 42.107105,326.736053 
	C42.803127,345.585815 44.715778,364.291931 49.119205,382.695953 
	C50.498199,388.459351 50.905582,394.478394 52.558514,400.146912 
	C54.441906,406.605835 57.043228,412.878754 59.672379,419.088623 
	C61.426365,423.231384 63.774185,427.122742 65.891891,431.505859 
	C70.379417,441.480927 74.798302,451.092468 79.348221,460.641541 
	C79.697311,461.374207 80.970840,461.666351 81.871964,462.521545 
	C84.608040,467.262817 87.286842,471.645874 90.016869,476.384308 
	C92.554741,482.090912 95.085388,487.406891 100.867386,490.502380 
	C101.883759,491.950439 102.843544,493.062897 103.875153,494.449341 
	C104.273094,495.170380 104.599197,495.617432 104.987411,496.403809 
	C107.667305,499.527802 110.285088,502.312439 112.971863,505.396179 
	C113.636673,506.188782 114.232491,506.682251 114.868782,507.527954 
	C119.130730,512.678162 123.195213,517.628784 127.645103,522.204651 
	C129.636169,524.252075 132.400375,525.547668 134.913269,527.471252 
	C135.632843,528.215271 136.252884,528.672607 136.948456,529.462341 
	C141.036621,534.807983 145.414413,539.342712 152.009430,541.337585 
	C152.337891,541.793945 152.591568,541.979919 152.961578,542.443726 
	C156.571396,548.889832 163.343613,550.434753 168.761551,553.884399 
	C169.064819,554.077515 169.706131,553.739746 170.178253,553.676392 
	C170.166412,553.703674 170.120117,553.741150 170.213745,554.056213 
	C170.897339,554.566223 171.487320,554.761169 172.042755,554.971558 
	C172.008224,554.987122 172.037399,554.917175 172.043152,555.287842 
	C174.085541,556.720398 176.122177,557.782227 178.089935,558.866211 
	C178.021027,558.888306 178.131027,558.794250 178.138489,559.018921 
	C178.504623,559.222473 178.863266,559.201355 179.384491,559.191406 
	C179.777847,559.264954 179.928543,559.410461 180.017212,559.881958 
	C180.414917,560.183472 180.794571,560.242004 181.337128,560.335083 
	C181.705658,560.480530 181.847244,560.646240 181.954056,561.235352 
	C183.304199,562.421509 184.625076,563.239014 186.122131,564.351196 
	C194.485275,568.484497 202.672241,572.323059 210.965729,576.491638 
	C212.747818,577.829468 214.313705,579.148621 216.120132,579.785034 
	C220.952576,581.487915 225.859238,582.999634 230.788422,584.404785 
	C244.416611,588.289856 257.874695,593.196350 271.762146,595.646362 
	C291.963593,599.210083 312.505463,600.829468 333.094543,599.832214 
	C337.106354,599.637878 341.052948,598.096436 345.468872,597.093506 
	C348.282532,596.973999 350.656952,596.937256 353.283600,597.200256 
	C354.996460,597.598999 356.513428,598.003540 357.908264,597.746155 
	C365.491974,596.346802 373.057404,594.841187 380.605560,593.259460 
	C386.399933,592.045288 392.238983,590.938782 397.914856,589.290833 
	C405.629700,587.050720 413.264771,584.496582 420.816376,581.753235 
	C423.790039,580.672974 426.446533,578.719727 429.619995,577.130249 
	C438.186554,573.356323 446.469360,569.794861 454.532990,565.791870 
	C457.988312,564.076538 460.987640,561.442566 464.558319,559.166992 
	C468.632812,556.760498 472.343109,554.412964 476.406952,552.003174 
	C481.285675,549.174194 487.108185,548.041687 489.330780,541.999390 
	C489.786713,541.686157 489.996216,541.453918 490.503601,541.141846 
	C491.955963,540.133118 493.065186,539.163391 494.447083,538.118408 
	C495.158264,537.709473 495.596832,537.375854 496.346588,536.896423 
	C499.487518,534.213623 502.317291,531.676575 505.341919,529.008179 
	C505.784454,528.678162 505.990479,528.442993 506.507050,528.125122 
	C511.827057,523.619690 516.957275,519.324646 521.696411,514.634460 
	C524.200012,512.156616 526.022278,508.990356 528.348450,506.002441 
	C528.791199,505.661438 528.978821,505.409210 529.443115,505.039978 
	C533.586548,500.037628 537.394531,495.108521 541.386780,490.035278 
	C541.804504,489.679230 541.999756,489.436737 542.456909,489.100952 
	C543.488281,488.682098 544.219543,488.325806 545.322998,487.969543 
	C551.014099,486.651764 550.869568,481.925812 551.951172,477.970764 
	C551.961731,477.983368 551.951355,477.968323 552.205566,477.812134 
	C552.637146,477.102509 552.814636,476.549072 553.013306,475.648621 
	C553.106079,474.610138 553.177673,473.918640 553.424561,473.071289 
	C553.822083,472.691742 554.008057,472.441162 554.362427,472.143127 
	C554.567078,472.122620 554.977844,472.099731 555.199219,472.323853 
	C558.163635,471.692352 561.528625,471.233856 559.024353,466.644836 
	C561.704651,461.850128 564.328979,457.402374 567.235168,453.220642 
	C567.880249,455.556824 568.243408,457.626953 568.654358,459.969421 
	C574.248169,456.242188 573.119934,452.596375 569.899292,448.485138 
	C573.284363,440.432465 576.658508,432.727417 580.365051,424.963043 
	C581.405029,422.922729 582.112671,420.941742 582.835510,418.716461 
	C582.850769,418.472168 582.929871,417.989044 583.204712,417.790283 
	C583.642212,416.719849 583.804810,415.848145 583.983704,414.988220 
	C584.000000,415.000000 583.964111,414.980255 584.234009,414.777191 
	C584.657104,413.699554 584.810242,412.824951 585.106934,411.610962 
	C586.151306,408.167908 587.052185,405.064270 588.200317,402.121979 
	C589.042603,402.350098 589.637512,402.416870 590.232422,402.483643 
	C590.135803,400.316406 590.039124,398.149200 589.958984,395.575012 
	C590.670288,391.789551 591.365112,388.411011 592.343872,384.987976 
	C592.750549,384.291718 592.873230,383.639984 592.997314,382.584961 
	C593.676758,379.127838 594.354797,376.073914 595.322510,372.980469 
	C596.707581,372.504639 597.802979,372.068359 599.345520,371.453979 
	C596.716370,364.140625 603.389282,356.601257 599.096924,348.919525 
	C598.671997,348.159058 599.621338,346.727600 599.616760,345.608887 
	C599.611755,344.402527 599.234985,343.197693 599.066406,341.577515 
	C599.403564,336.391479 599.981812,331.614746 599.893005,326.850464 
	C599.824768,323.186249 600.901917,321.951202 604.679138,322.010925 
	C616.783020,322.202240 628.892639,322.031189 641.000000,322.000000 
	C641.000000,427.021454 641.000000,532.042908 640.540283,637.532166 
	C427.053711,638.000000 214.026855,638.000000 1.000000,638.000000 
z"/>
<path fill="#F9D810" opacity="1.000000" stroke="none" 
	d="
M1.000000,638.333313 
	C214.026855,638.000000 427.053711,638.000000 640.540283,638.000000 
	C641.000000,638.444458 641.000000,638.888916 640.540283,639.666687 
	C427.053711,640.000000 214.026855,640.000000 1.000000,640.000000 
	C1.000000,639.555542 1.000000,639.111084 1.000000,638.333313 
z"/>
<path fill="#E4C400" opacity="1.000000" stroke="none" 
	d="
M1.000000,640.500000 
	C214.026855,640.000000 427.053711,640.000000 640.540283,640.000000 
	C640.833374,640.333374 640.684082,640.943787 640.497253,640.955505 
	C639.169128,641.039001 637.833313,641.000000 636.500000,641.000000 
	C424.666656,641.000000 212.833328,641.000000 1.000000,640.500000 
z"/>
<path fill="#D8C43F" opacity="1.000000" stroke="none" 
	d="
M641.000000,321.666687 
	C628.892639,322.031189 616.783020,322.202240 604.679138,322.010925 
	C600.901917,321.951202 599.824768,323.186249 599.893005,326.850464 
	C599.981812,331.614746 599.403564,336.391479 599.030518,341.992981 
	C597.643311,352.888763 596.338074,362.954376 595.032837,373.020020 
	C594.354797,376.073914 593.676758,379.127838 592.753967,382.759338 
	C592.359436,383.902130 592.209717,384.467316 592.059937,385.032501 
	C591.365112,388.411011 590.670288,391.789551 589.701538,395.812256 
	C588.936096,398.291168 588.444580,400.125916 587.953003,401.960632 
	C587.052185,405.064270 586.151306,408.167908 584.852661,411.829163 
	C584.291260,413.251251 584.127686,414.115753 583.964111,414.980255 
	C583.964111,414.980255 584.000000,415.000000 583.725830,415.200195 
	C583.277771,416.263275 583.103821,417.126160 582.929932,417.989044 
	C582.929871,417.989044 582.850769,418.472168 582.593933,418.938110 
	C581.568970,421.276825 580.800781,423.149597 580.032654,425.022369 
	C576.658508,432.727417 573.284363,440.432465 569.582397,448.582581 
	C568.487427,450.336670 567.720337,451.645630 566.953247,452.954620 
	C564.328979,457.402374 561.704651,461.850128 558.772217,466.834473 
	C557.378540,468.308472 556.292969,469.245850 555.128418,470.115112 
	C555.049377,470.047028 554.892883,469.909027 554.978760,469.572083 
	C557.125244,465.557098 559.185791,461.879059 561.250610,458.150085 
	C561.254883,458.099152 561.204956,458.188263 561.492065,458.006226 
	C563.252075,454.929169 564.724915,452.034149 566.162903,449.075012 
	C566.128052,449.010925 566.150940,449.154999 566.429932,448.950623 
	C567.875183,446.213104 569.041504,443.679962 570.156860,441.081268 
	C570.105896,441.015686 570.164001,441.171326 570.452332,440.971924 
	C573.504211,434.177673 576.267700,427.582794 579.124146,420.881775 
	C579.217102,420.775604 579.156982,420.499847 579.423340,420.221344 
	C580.626160,417.081573 581.562622,414.220306 582.474243,411.344696 
	C582.449463,411.330383 582.464966,411.275208 582.706482,411.088867 
	C583.067627,410.314514 583.187317,409.726562 583.266541,409.106934 
	C583.226074,409.075256 583.221924,409.177917 583.491577,408.935120 
	C593.267578,380.280457 598.070007,351.107147 598.116821,320.994934 
	C598.298462,320.855255 598.476990,320.433167 598.476990,320.433167 
	C612.365784,320.431793 626.254639,320.430389 640.571716,320.214478 
	C641.000000,320.444458 641.000000,320.888885 641.000000,321.666687 
z"/>
<path fill="#DAC842" opacity="1.000000" stroke="none" 
	d="
M65.856232,431.126617 
	C63.774185,427.122742 61.426365,423.231384 59.672379,419.088623 
	C57.043228,412.878754 54.441906,406.605835 52.558514,400.146912 
	C50.905582,394.478394 50.498199,388.459351 49.119205,382.695953 
	C44.715778,364.291931 42.803127,345.585815 42.107105,326.736053 
	C41.988132,323.514069 40.620747,322.878143 37.832302,322.898224 
	C25.867344,322.984436 13.901431,322.938477 1.467933,322.970337 
	C1.000000,322.250000 1.000000,321.500000 1.000000,320.375000 
	C9.430670,320.187042 17.860802,320.405518 26.292202,320.549866 
	C31.769335,320.643616 37.248318,320.629242 43.269032,320.795929 
	C43.811588,320.928558 44.137192,321.153351 44.097637,321.601868 
	C44.237865,342.058899 45.719296,361.996796 50.917198,381.337982 
	C55.390049,397.981262 61.155483,414.277161 66.225739,430.826202 
	C66.102089,430.925751 65.856232,431.126617 65.856232,431.126617 
z"/>
<path fill="#1A1A1B" opacity="1.000000" stroke="none" 
	d="
M44.137192,321.153351 
	C44.137192,321.153351 43.811588,320.928558 43.709877,320.760895 
	C44.030571,314.460083 44.497112,308.329620 44.868301,302.193390 
	C47.550541,257.852722 60.704357,216.826721 83.470207,178.731537 
	C104.183601,144.070816 131.133408,115.411087 164.425339,92.569618 
	C180.819016,81.321991 198.127335,72.052254 216.503387,64.386871 
	C238.952637,55.022423 262.196289,49.231426 286.173767,46.104229 
	C310.191650,42.971764 334.331543,42.647530 358.239441,46.510418 
	C374.440796,49.128132 390.689941,52.423248 406.337677,57.282963 
	C435.114807,66.220261 461.528320,80.165962 485.841888,98.161102 
	C501.715332,109.909485 516.050537,123.283646 529.081909,137.951324 
	C544.915100,155.772720 558.904358,175.126785 568.649658,196.980515 
	C575.936829,213.322083 583.035217,229.984558 587.717529,247.184738 
	C592.439575,264.530609 594.236694,282.691650 596.980225,300.546997 
	C597.935425,306.763824 597.889771,313.134399 598.389099,319.933960 
	C598.476990,320.433167 598.298462,320.855255 597.729858,321.046448 
	C596.775940,322.748657 596.128296,324.247070 596.055054,325.773071 
	C595.843262,330.185974 596.346313,334.681580 595.704712,339.016846 
	C593.310730,355.190674 590.691101,371.334045 587.907043,387.445862 
	C586.646362,394.741882 584.801697,401.937012 583.221924,409.177917 
	C583.221924,409.177917 583.226074,409.075256 582.948120,409.234985 
	C582.601807,410.021576 582.533386,410.648376 582.464966,411.275208 
	C582.464966,411.275208 582.449463,411.330383 582.073486,411.357849 
	C580.850647,414.423492 580.003845,417.461670 579.156982,420.499847 
	C579.156982,420.499847 579.217102,420.775604 578.755493,420.931915 
	C574.717346,427.431793 569.524536,433.121033 570.164001,441.171326 
	C570.164001,441.171326 570.105896,441.015686 569.788696,441.086884 
	C568.364685,443.823700 567.257812,446.489349 566.150940,449.154999 
	C566.150940,449.154999 566.128052,449.010925 565.801636,449.081360 
	C564.051758,452.163940 562.628357,455.176117 561.204956,458.188263 
	C561.204956,458.188263 561.254883,458.099152 560.870483,458.120422 
	C556.405518,462.423798 553.220398,467.206726 552.061890,473.094513 
	C552.028320,473.046997 552.132996,473.097778 551.775146,473.096436 
	C547.733398,475.444153 545.176392,478.503265 545.064575,483.075562 
	C545.031494,483.027130 545.133423,483.085266 544.760986,483.099121 
	C543.646240,484.464203 542.904053,485.815430 542.146912,487.083008 
	C542.131958,486.999359 542.199280,487.155457 541.841675,487.143250 
	C540.408142,488.837280 539.332153,490.543488 538.254333,492.152313 
	C538.252563,492.054932 538.277222,492.253235 537.844849,492.177094 
	C535.967102,492.743286 534.063354,493.010803 533.169495,494.104065 
	C531.151367,496.572266 529.704407,499.497803 527.893005,502.146973 
	C525.359253,505.852509 522.705078,509.475769 520.066223,513.077759 
	C520.030029,513.021362 520.135742,513.103821 519.769531,513.096680 
	C515.794067,514.080627 513.479309,516.234558 513.050781,520.069824 
	C513.011780,520.021851 513.116150,520.088257 512.739136,520.066040 
	C510.726776,521.818970 509.091400,523.594177 507.419128,525.375122 
	C507.382263,525.380920 507.368561,525.454285 507.004761,525.343506 
	C505.471680,526.546143 504.302399,527.859619 503.065948,529.127136 
	C502.998779,529.081177 503.151337,529.137878 502.777954,529.097656 
	C500.670349,530.780334 498.936157,532.503235 497.096558,534.172180 
	C496.991089,534.118225 497.204163,534.210632 496.821320,534.143799 
	C495.032288,535.472900 493.626099,536.868835 492.113831,538.235596 
	C492.007751,538.206482 492.226471,538.229065 491.884308,538.191833 
	C491.229736,538.623169 490.917328,539.091675 490.553284,539.573730 
	C490.501648,539.587158 490.484070,539.692444 490.114014,539.498901 
	C484.539795,538.010559 483.259155,539.081726 481.149475,546.190796 
	C481.012482,546.002197 481.295380,546.373169 480.909515,546.265137 
	C478.467773,546.353027 476.411865,546.548889 474.305573,546.749512 
	C473.886963,548.629272 473.495514,550.387024 473.055450,552.101990 
	C473.006836,552.059204 473.127930,552.105042 472.729980,552.075439 
	C467.019409,552.886230 462.918884,555.549561 460.086731,560.126465 
	C460.055511,560.085693 460.157288,560.099670 459.903992,560.147461 
	C459.417603,560.440430 459.184448,560.685608 458.854553,561.033203 
	C458.757751,561.135742 458.475861,561.132690 458.064209,561.095581 
	C452.820221,563.778198 447.987854,566.497986 443.118805,569.175049 
	C443.082123,569.132324 443.194061,569.144592 442.935364,569.173401 
	C442.439911,569.445007 442.203156,569.687805 441.831055,570.043030 
	C441.695740,570.155396 441.344482,570.175598 440.932312,570.121338 
	C435.957520,571.899719 431.494934,574.054871 426.814209,575.506775 
	C410.073029,580.699829 393.487274,586.727051 376.402618,590.380615 
	C361.042114,593.665527 345.140198,595.009338 329.407440,595.771423 
	C317.393158,596.353394 305.277283,594.411682 293.193420,594.092712 
	C278.334137,593.700500 264.010376,590.566711 249.730469,586.856995 
	C244.177795,585.414429 238.498154,584.460571 232.883942,583.269409 
	C232.891510,583.254578 232.909424,583.231018 232.757034,582.905396 
	C231.362488,581.766785 230.210449,580.737427 228.863403,580.176086 
	C220.648239,576.752502 212.410080,573.380981 204.125839,570.129150 
	C202.493332,569.488342 200.626251,569.445251 198.931793,569.114807 
	C198.996246,569.103027 198.884460,569.171387 198.872253,568.813110 
	C194.477295,566.406921 190.094574,564.359009 185.749847,562.262756 
	C185.787842,562.214478 185.803360,562.336365 185.709732,562.017639 
	C185.015015,561.533569 184.413925,561.368286 183.797379,561.214844 
	C183.781921,561.226807 183.748642,561.247681 183.730591,560.947205 
	C182.752533,559.576416 181.916885,558.345032 180.797684,557.480896 
	C179.667740,556.608459 177.772659,556.426453 177.060410,555.370300 
	C175.000336,552.315552 172.230835,551.680908 168.955688,552.033447 
	C168.993225,552.011780 168.947952,552.085754 168.936829,551.730225 
	C165.196503,549.011292 161.467331,546.647949 157.744354,544.290405 
	C157.750549,544.296204 157.719513,544.306152 157.767380,543.944946 
	C155.639374,541.497192 152.099487,539.705017 151.572525,537.262756 
	C150.486755,532.230713 147.702423,533.703491 144.903137,534.145996 
	C145.006378,534.099548 144.816360,534.222900 144.842316,533.851135 
	C143.215073,532.342590 141.561890,531.205811 139.941772,530.041809 
	C139.974838,530.014587 139.958679,530.098694 139.857254,529.849854 
	C139.451065,529.431091 139.146301,529.261230 138.891495,529.094971 
	C138.941452,529.098572 138.867264,529.165894 138.905731,528.794800 
	C136.529144,524.522034 134.003265,520.753235 128.955688,520.037109 
	C128.996643,520.018372 128.940842,520.089172 128.933258,519.736328 
	C127.916183,518.612488 126.906715,517.841431 125.932899,517.047058 
	C125.968559,517.023743 125.954544,517.107788 125.860123,516.858398 
	C125.472588,516.422424 125.179482,516.235901 124.929176,516.042053 
	C124.971985,516.034729 124.925476,516.108154 124.921509,515.754578 
	C123.912842,514.623169 122.908142,513.845398 121.941772,513.036743 
	C121.980103,513.005920 121.935860,513.093750 121.952011,512.721863 
	C119.535454,507.725342 117.274651,502.934509 111.494385,501.487793 
	C111.479828,501.443115 111.386589,501.431427 111.543335,501.063538 
	C110.465179,497.775696 109.230278,494.855743 107.876320,491.654297 
	C106.642517,491.814423 105.207977,492.000610 103.820107,492.100769 
	C103.866776,492.014740 103.815254,492.203583 103.845612,491.830811 
	C102.520020,488.381592 102.202301,484.412048 97.409210,484.042358 
	C97.031326,483.742920 96.932968,483.500610 96.959641,482.819641 
	C95.324318,478.487366 94.811020,474.052673 90.714561,471.257965 
	C89.653282,470.533875 90.068779,467.488861 90.020966,465.504730 
	C89.998665,464.579041 90.489204,463.640991 90.747299,462.708527 
	C87.852409,465.293396 86.355888,465.892578 84.579597,461.723236 
	C82.447945,456.719696 79.417175,452.087433 76.611031,447.392853 
	C76.036484,446.431702 74.733109,445.906189 73.770645,445.123322 
	C73.775612,445.066772 73.815819,445.172943 73.875282,444.776886 
	C73.095612,441.882019 72.309105,439.364075 71.408600,436.887573 
	C66.507156,423.407776 61.100719,410.089600 56.764046,396.431305 
	C49.356651,373.101868 46.307430,349.016479 45.911148,324.568024 
	C45.892551,323.420502 44.754108,322.291168 44.137192,321.153351 
M464.981628,492.445587 
	C464.979706,492.074371 464.977753,491.703156 465.828461,491.102142 
	C468.389709,491.102142 470.950989,491.102142 473.739685,491.102142 
	C438.462280,455.844208 403.622772,421.023895 369.537506,386.957397 
	C334.799194,421.656342 299.892883,456.523071 265.405762,490.971130 
	C267.390533,491.069092 270.207764,491.208191 273.058899,491.906525 
	C273.041229,492.279480 273.023590,492.652405 273.610748,493.594574 
	C274.921417,493.727661 276.232025,493.976776 277.542725,493.977173 
	C338.463898,493.996338 399.385071,494.001221 460.306213,493.952393 
	C461.870819,493.951141 463.434937,493.333405 464.981628,492.445587 
M355.767303,214.514679 
	C356.453979,212.958557 357.733002,211.404984 357.739746,209.845901 
	C357.872314,179.214813 357.860901,148.583054 357.857697,117.951439 
	C357.857574,116.737869 357.648804,115.524315 357.598236,114.974052 
	C324.453430,148.068344 291.242004,181.229172 258.084656,214.336014 
	C259.032166,214.386017 260.323639,214.514267 261.615021,214.513504 
	C288.249207,214.497955 314.883362,214.451874 341.517548,214.456985 
	C345.662720,214.457779 349.807831,214.679016 354.159546,215.162781 
	C354.453674,215.046478 354.747772,214.930161 355.767303,214.514679 
M128.496017,228.445084 
	C128.496017,264.990814 128.496017,301.536530 128.496017,336.984344 
	C164.778336,300.769867 201.392715,264.223938 237.667587,228.016876 
	C236.620895,227.945663 234.804489,227.822098 232.725769,226.966599 
	C231.842163,226.645081 230.958954,226.043777 230.074875,226.042465 
	C197.587769,225.994492 165.100540,225.983459 132.613617,226.075729 
	C131.411469,226.079147 130.212402,227.164917 128.496017,228.445084 
M496.718964,226.953796 
	C494.833893,226.636276 492.948975,226.042114 491.063721,226.041031 
	C410.825134,225.994873 330.586517,225.989182 250.347977,226.070801 
	C248.283295,226.072906 246.219681,227.102722 243.528000,228.127060 
	C243.361633,230.087769 243.050049,232.048447 243.049789,234.009171 
	C243.038803,318.139709 243.054306,402.270264 243.080780,486.400818 
	C243.081146,487.603302 243.261337,488.805725 243.254410,488.719177 
	C330.105164,401.993378 417.292236,314.931732 504.290985,228.058167 
	C502.226288,227.951340 499.607391,227.815826 496.718964,226.953796 
z"/>
<path fill="#332605" opacity="1.000000" stroke="none" 
	d="
M232.876358,583.284180 
	C238.498154,584.460571 244.177795,585.414429 249.730469,586.856995 
	C264.010376,590.566711 278.334137,593.700500 293.193420,594.092712 
	C305.277283,594.411682 317.393158,596.353394 329.407440,595.771423 
	C345.140198,595.009338 361.042114,593.665527 376.402618,590.380615 
	C393.487274,586.727051 410.073029,580.699829 426.814209,575.506775 
	C431.494934,574.054871 435.957520,571.899719 440.693726,570.390930 
	C436.523621,572.786987 432.179932,574.859253 427.468262,576.971436 
	C409.980072,582.197632 392.924286,587.612366 375.709656,592.463501 
	C368.320221,594.545837 360.600830,595.457153 353.031342,596.900513 
	C350.656952,596.937256 348.282532,596.973999 345.023987,597.025269 
	C325.417542,596.683167 306.635864,597.127136 287.989471,595.745789 
	C269.130615,594.348755 250.673447,589.981445 232.876358,583.284180 
z"/>
<path fill="#D9C442" opacity="1.000000" stroke="none" 
	d="
M232.883942,583.269348 
	C250.673447,589.981445 269.130615,594.348755 287.989471,595.745789 
	C306.635864,597.127136 325.417542,596.683167 344.584717,597.108154 
	C341.052948,598.096436 337.106354,599.637878 333.094543,599.832214 
	C312.505463,600.829468 291.963593,599.210083 271.762146,595.646362 
	C257.874695,593.196350 244.416611,588.289856 230.788422,584.404785 
	C225.859238,582.999634 220.952576,581.487915 216.120132,579.785034 
	C214.313705,579.148621 212.747818,577.829468 211.067932,576.368164 
	C211.063629,575.914795 211.267151,575.667114 211.636734,575.718994 
	C218.974014,578.257568 225.941711,580.744324 232.909424,583.231018 
	C232.909424,583.231018 232.891510,583.254578 232.883942,583.269348 
z"/>
<path fill="#DBC53F" opacity="1.000000" stroke="none" 
	d="
M353.283600,597.200256 
	C360.600830,595.457153 368.320221,594.545837 375.709656,592.463501 
	C392.924286,587.612366 409.980072,582.197632 427.822601,577.020386 
	C428.779114,577.074280 429.013306,577.119202 429.247437,577.164062 
	C426.446533,578.719727 423.790039,580.672974 420.816376,581.753235 
	C413.264771,584.496582 405.629700,587.050720 397.914856,589.290833 
	C392.238983,590.938782 386.399933,592.045288 380.605560,593.259460 
	C373.057404,594.841187 365.491974,596.346802 357.908264,597.746155 
	C356.513428,598.003540 354.996460,597.598999 353.283600,597.200256 
z"/>
<path fill="#F4D517" opacity="1.000000" stroke="none" 
	d="
M595.322510,372.980469 
	C596.338074,362.954376 597.643311,352.888763 598.984497,342.407654 
	C599.234985,343.197693 599.611755,344.402527 599.616760,345.608887 
	C599.621338,346.727600 598.671997,348.159058 599.096924,348.919525 
	C603.389282,356.601257 596.716370,364.140625 599.345520,371.453979 
	C597.802979,372.068359 596.707581,372.504639 595.322510,372.980469 
z"/>
<path fill="#D8C43F" opacity="1.000000" stroke="none" 
	d="
M429.619995,577.130310 
	C429.013306,577.119202 428.779114,577.074280 428.190613,576.980469 
	C432.179932,574.859253 436.523621,572.786987 441.105896,570.445190 
	C441.344482,570.175598 441.695740,570.155396 442.098022,570.030640 
	C442.731598,569.652161 442.962830,569.398376 443.194061,569.144592 
	C443.194061,569.144592 443.082123,569.132324 443.476135,569.139648 
	C448.738739,566.475586 453.607300,563.804138 458.475861,561.132690 
	C458.475861,561.132690 458.757751,561.135742 459.121521,561.004639 
	C459.709259,560.615540 459.933289,560.357605 460.157288,560.099670 
	C460.157288,560.099670 460.055511,560.085693 460.410034,560.072144 
	C461.754089,559.602661 462.743622,559.146667 463.848877,558.824036 
	C463.964600,558.957397 464.194122,559.225952 464.194122,559.225952 
	C460.987640,561.442566 457.988312,564.076538 454.532990,565.791870 
	C446.469360,569.794861 438.186554,573.356323 429.619995,577.130310 
z"/>
<path fill="#DAC842" opacity="1.000000" stroke="none" 
	d="
M81.814682,462.163269 
	C80.970840,461.666351 79.697311,461.374207 79.348221,460.641541 
	C74.798302,451.092468 70.379417,441.480927 65.891891,431.505859 
	C65.856232,431.126617 66.102089,430.925751 66.468292,431.075623 
	C69.161598,435.874634 71.488708,440.523773 73.815826,445.172943 
	C73.815819,445.172943 73.775612,445.066772 73.823410,445.475586 
	C76.673103,451.179108 79.474998,456.473846 82.161377,461.867279 
	C82.045860,461.966003 81.814682,462.163269 81.814682,462.163269 
z"/>
<path fill="#D8C43F" opacity="1.000000" stroke="none" 
	d="
M528.152100,506.134949 
	C526.022278,508.990356 524.200012,512.156616 521.696411,514.634460 
	C516.957275,519.324646 511.827057,523.619690 506.396088,528.006409 
	C505.932892,527.933960 505.709167,527.698181 505.847229,527.448853 
	C506.446350,526.617798 506.907471,526.036011 507.368561,525.454285 
	C507.368561,525.454285 507.382263,525.380920 507.713989,525.259033 
	C509.735840,523.454224 511.425995,521.771240 513.116150,520.088257 
	C513.116150,520.088257 513.011780,520.021851 513.358032,519.939819 
	C515.848083,517.606506 517.991943,515.355164 520.135742,513.103821 
	C520.135742,513.103821 520.030029,513.021362 520.380066,512.961548 
	C523.051331,510.504822 525.372620,508.107971 527.807983,505.817535 
	C527.922119,505.923981 528.152161,506.134979 528.152100,506.134949 
z"/>
<path fill="#DAC842" opacity="1.000000" stroke="none" 
	d="
M134.813721,527.184509 
	C132.400375,525.547668 129.636169,524.252075 127.645103,522.204651 
	C123.195213,517.628784 119.130730,512.678162 114.983070,507.417480 
	C115.056885,506.954834 115.288681,506.737305 115.578598,506.893646 
	C117.890953,509.064575 119.913406,511.079163 121.935860,513.093750 
	C121.935860,513.093750 121.980103,513.005920 122.071869,513.320740 
	C123.084244,514.459778 124.004852,515.283997 124.925468,516.108154 
	C124.925476,516.108154 124.971985,516.034729 125.004799,516.305542 
	C125.343254,516.753479 125.648895,516.930603 125.954544,517.107788 
	C125.954544,517.107788 125.968559,517.023743 126.054497,517.335449 
	C127.073906,518.461121 128.007370,519.275146 128.940842,520.089172 
	C128.940842,520.089172 128.996643,520.018372 129.065811,520.351318 
	C131.178894,522.689148 133.222809,524.693909 135.154495,526.821167 
	C135.042267,526.943542 134.813705,527.184509 134.813721,527.184509 
z"/>
<path fill="#D9C442" opacity="1.000000" stroke="none" 
	d="
M210.961426,576.038208 
	C202.672241,572.323059 194.485275,568.484497 186.290344,564.172607 
	C186.282394,563.699219 186.617798,563.342957 186.948166,563.456665 
	C191.147186,565.437439 195.015823,567.304382 198.884460,569.171387 
	C198.884460,569.171387 198.996246,569.103027 199.129181,569.402222 
	C203.263794,571.690002 207.265472,573.678528 211.267151,575.667114 
	C211.267151,575.667114 211.063629,575.914795 210.961426,576.038208 
z"/>
<path fill="#DAC842" opacity="1.000000" stroke="none" 
	d="
M170.190109,553.649048 
	C169.706131,553.739746 169.064819,554.077515 168.761551,553.884399 
	C163.343613,550.434753 156.571396,548.889832 153.055634,542.345703 
	C153.083206,541.902039 153.267441,541.702454 153.575317,541.811829 
	C155.161972,542.716187 156.440750,543.511169 157.719513,544.306152 
	C157.719513,544.306152 157.750549,544.296204 157.914856,544.578125 
	C161.702103,547.268677 165.325027,549.677246 168.947952,552.085754 
	C168.947952,552.085754 168.993225,552.011780 169.033203,552.285889 
	C169.445480,552.923035 169.817795,553.286011 170.190109,553.649048 
z"/>
<path fill="#FDD310" opacity="1.000000" stroke="none" 
	d="
M567.235168,453.220642 
	C567.720337,451.645630 568.487427,450.336670 569.571411,448.930237 
	C573.119934,452.596375 574.248169,456.242188 568.654358,459.969421 
	C568.243408,457.626953 567.880249,455.556824 567.235168,453.220642 
z"/>
<path fill="#DAC842" opacity="1.000000" stroke="none" 
	d="
M96.940010,483.215546 
	C96.932968,483.500610 97.031326,483.742920 97.532272,484.364624 
	C98.948784,486.471954 100.068108,488.157135 101.093498,489.923706 
	C100.999557,490.005096 100.810806,490.166809 100.810806,490.166809 
	C95.085388,487.406891 92.554741,482.090912 90.213348,476.197021 
	C90.489235,475.529175 90.619881,475.403992 90.987457,475.507690 
	C93.129593,478.229614 95.034798,480.722565 96.940010,483.215546 
z"/>
<path fill="#DAC842" opacity="1.000000" stroke="none" 
	d="
M151.884811,541.135254 
	C145.414413,539.342712 141.036621,534.807983 137.069000,529.339478 
	C137.114014,528.884216 137.355392,528.638733 137.611481,528.720337 
	C138.200790,528.923218 138.534027,529.044556 138.867264,529.165894 
	C138.867264,529.165894 138.941452,529.098572 138.971481,529.358765 
	C139.320572,529.778870 139.639618,529.938782 139.958679,530.098694 
	C139.958679,530.098694 139.974838,530.014587 140.081528,530.339294 
	C141.730927,531.850281 143.273651,533.036560 144.816376,534.222900 
	C144.816360,534.222900 145.006378,534.099548 145.036591,534.452393 
	C147.422318,536.821777 149.777817,538.838196 152.070663,540.924377 
	C152.008011,540.994080 151.884811,541.135254 151.884811,541.135254 
z"/>
<path fill="#D8C43F" opacity="1.000000" stroke="none" 
	d="
M489.129608,542.121216 
	C487.108185,548.041687 481.285675,549.174194 476.228210,551.813660 
	C475.576050,551.560852 475.456116,551.435242 475.550964,551.068359 
	C477.608917,549.342468 479.452148,547.857788 481.295349,546.373169 
	C481.295380,546.373169 481.012482,546.002197 481.480286,546.108948 
	C484.226440,544.728760 486.504822,543.241760 488.868713,541.847412 
	C488.954285,541.940002 489.129608,542.121216 489.129608,542.121216 
z"/>
<path fill="#D8C43F" opacity="1.000000" stroke="none" 
	d="
M541.202454,490.179443 
	C537.394531,495.108521 533.586548,500.037628 529.339600,504.940918 
	C528.900513,504.915161 528.690369,504.720428 528.798462,504.400085 
	C532.030151,500.137604 535.153687,496.195435 538.277222,492.253235 
	C538.277222,492.253235 538.252563,492.054932 538.525024,492.025024 
	C539.499634,491.300415 540.201843,490.605682 540.978394,489.978333 
	C541.052795,490.045685 541.202454,490.179443 541.202454,490.179443 
z"/>
<path fill="#332605" opacity="1.000000" stroke="none" 
	d="
M170.178253,553.676392 
	C169.817795,553.286011 169.445480,552.923035 168.995667,552.307556 
	C172.230835,551.680908 175.000336,552.315552 177.060410,555.370300 
	C177.772659,556.426453 179.667740,556.608459 180.797684,557.480896 
	C181.916885,558.345032 182.752533,559.576416 183.422485,560.906738 
	C182.729889,561.066650 182.327347,560.966675 181.924789,560.866699 
	C181.847244,560.646240 181.705658,560.480530 181.069580,560.121338 
	C180.425812,559.795105 180.212494,559.716980 179.999161,559.638916 
	C179.928543,559.410461 179.777847,559.264954 179.134186,559.027954 
	C178.524567,558.833740 178.327789,558.813965 178.131027,558.794250 
	C178.131027,558.794250 178.021027,558.888306 177.964157,558.554688 
	C175.950653,557.119751 173.994034,556.018494 172.037399,554.917175 
	C172.037399,554.917175 172.008224,554.987122 171.916901,554.686768 
	C171.257080,554.171326 170.688599,553.956238 170.120117,553.741150 
	C170.120117,553.741150 170.166412,553.703674 170.178253,553.676392 
z"/>
<path fill="#DAC842" opacity="1.000000" stroke="none" 
	d="
M90.162109,475.841614 
	C87.286842,471.645874 84.608040,467.262817 81.871964,462.521545 
	C81.814682,462.163269 82.045860,461.966003 82.411407,462.092712 
	C85.434807,466.572571 88.092667,470.925690 90.750534,475.278778 
	C90.619881,475.403992 90.489235,475.529175 90.162109,475.841614 
z"/>
<path fill="#F2D713" opacity="1.000000" stroke="none" 
	d="
M551.940613,477.958160 
	C550.869568,481.925812 551.014099,486.651764 545.468384,487.657684 
	C546.553894,484.629822 547.866150,481.913788 549.467041,479.105774 
	C550.483948,478.661865 551.212280,478.310028 551.940613,477.958160 
z"/>
<path fill="#D8C43F" opacity="1.000000" stroke="none" 
	d="
M475.874695,551.875977 
	C472.343109,554.412964 468.632812,556.760498 464.558319,559.166992 
	C464.194122,559.225952 463.964600,558.957397 464.052734,558.556091 
	C467.136536,556.138184 470.132233,554.121582 473.127930,552.105042 
	C473.127930,552.105042 473.006836,552.059204 473.345551,552.031128 
	C474.234894,551.771912 474.785553,551.540710 475.336212,551.309570 
	C475.456116,551.435242 475.576050,551.560852 475.874695,551.875977 
z"/>
<path fill="#D8C43F" opacity="1.000000" stroke="none" 
	d="
M505.147034,529.139587 
	C502.317291,531.676575 499.487518,534.213623 496.211548,536.757446 
	C495.765320,536.764343 495.493713,536.487915 495.637756,536.235229 
	C496.255920,535.391846 496.730042,534.801270 497.204163,534.210632 
	C497.204163,534.210632 496.991089,534.118225 497.416748,534.091675 
	C499.612091,532.422729 501.381714,530.780334 503.151367,529.137939 
	C503.151337,529.137878 502.998779,529.081177 503.337585,529.079712 
	C504.017670,528.942810 504.358887,528.807251 504.810974,528.789551 
	C504.921844,528.907288 505.147034,529.139587 505.147034,529.139587 
z"/>
<path fill="#DAC842" opacity="1.000000" stroke="none" 
	d="
M112.902878,505.097076 
	C110.285088,502.312439 107.667305,499.527802 105.153503,496.242859 
	C105.257477,495.742554 105.587563,495.418488 105.856201,495.605164 
	C107.878754,497.671692 109.632675,499.551544 111.386589,501.431427 
	C111.386589,501.431427 111.479828,501.443115 111.581757,501.773804 
	C112.237801,502.953156 112.791908,503.801788 113.235260,504.762115 
	C113.124512,504.873810 112.902885,505.097076 112.902878,505.097076 
z"/>
<path fill="#D8C43F" opacity="1.000000" stroke="none" 
	d="
M549.178467,479.197784 
	C547.866150,481.913788 546.553894,484.629822 545.096191,487.657654 
	C544.219543,488.325806 543.488281,488.682098 542.354492,489.002258 
	C541.951965,488.966125 541.743713,488.772217 541.813110,488.499390 
	C541.988037,487.869537 542.093628,487.512482 542.199219,487.155457 
	C542.199280,487.155457 542.131958,486.999359 542.440735,486.945862 
	C543.544128,485.623322 544.338745,484.354279 545.133423,483.085266 
	C545.133423,483.085266 545.031494,483.027130 545.348755,482.925323 
	C546.759155,481.531891 547.852417,480.240265 549.004761,479.010010 
	C549.063965,479.071381 549.178467,479.197784 549.178467,479.197784 
z"/>
<path fill="#F4D616" opacity="1.000000" stroke="none" 
	d="
M588.200378,402.121979 
	C588.444580,400.125916 588.936096,398.291168 589.685059,396.219208 
	C590.039124,398.149200 590.135803,400.316406 590.232422,402.483643 
	C589.637512,402.416870 589.042603,402.350098 588.200378,402.121979 
z"/>
<path fill="#F2D713" opacity="1.000000" stroke="none" 
	d="
M555.207397,470.183228 
	C556.292969,469.245850 557.378540,468.308472 558.716248,467.181458 
	C561.528625,471.233856 558.163635,471.692352 555.220215,472.000610 
	C555.082458,471.029877 555.144897,470.606567 555.207397,470.183228 
z"/>
<path fill="#DAC842" opacity="1.000000" stroke="none" 
	d="
M172.043152,555.287842 
	C173.994034,556.018494 175.950653,557.119751 178.033051,558.532593 
	C176.122177,557.782227 174.085541,556.720398 172.043152,555.287842 
z"/>
<path fill="#D8C43F" opacity="1.000000" stroke="none" 
	d="
M551.951172,477.970764 
	C551.212280,478.310028 550.483948,478.661865 549.467041,479.105774 
	C549.178467,479.197784 549.063965,479.071381 549.094360,478.686890 
	C550.127502,476.567535 551.130249,474.832672 552.132996,473.097778 
	C552.132996,473.097778 552.028320,473.046997 552.284546,473.079224 
	C552.540771,473.111481 552.961609,472.961884 553.033325,473.028381 
	C553.105103,473.094879 553.249207,473.227173 553.249207,473.227173 
	C553.177673,473.918640 553.106079,474.610138 552.767822,475.812988 
	C552.317871,476.872345 552.134583,477.420319 551.951294,477.968323 
	C551.951355,477.968323 551.961731,477.983368 551.951172,477.970764 
z"/>
<path fill="#F4D616" opacity="1.000000" stroke="none" 
	d="
M580.365051,424.963043 
	C580.800781,423.149597 581.568970,421.276825 582.578674,419.182404 
	C582.112671,420.941742 581.405029,422.922729 580.365051,424.963043 
z"/>
<path fill="#D8C43F" opacity="1.000000" stroke="none" 
	d="
M494.174438,538.193665 
	C493.065186,539.163391 491.955963,540.133118 490.434326,541.066589 
	C490.021912,541.030334 489.879852,540.883057 489.971680,540.677185 
	C490.284332,540.255188 490.424500,539.995544 490.484070,539.692444 
	C490.484070,539.692444 490.501648,539.587158 490.819153,539.509583 
	C491.499939,539.031006 491.863220,538.630066 492.226501,538.229126 
	C492.226471,538.229065 492.007751,538.206482 492.386841,538.184753 
	C493.111725,538.031433 493.457458,537.899902 493.895935,537.874756 
	C493.988647,537.981140 494.174438,538.193665 494.174438,538.193665 
z"/>
<path fill="#D9C442" opacity="1.000000" stroke="none" 
	d="
M181.954056,561.235352 
	C182.327347,560.966675 182.729889,561.066650 183.440536,561.207153 
	C183.748642,561.247681 183.781921,561.226807 183.961487,561.467407 
	C184.695145,561.917480 185.249252,562.126953 185.803360,562.336365 
	C185.803360,562.336365 185.787842,562.214478 185.848083,562.473877 
	C186.168289,562.909180 186.404785,563.112427 186.617798,563.342957 
	C186.617798,563.342957 186.282394,563.699219 186.114182,563.877869 
	C184.625076,563.239014 183.304199,562.421509 181.954056,561.235352 
z"/>
<path fill="#DAC842" opacity="1.000000" stroke="none" 
	d="
M103.803329,494.175354 
	C102.843544,493.062897 101.883759,491.950439 100.867386,490.502380 
	C100.810806,490.166809 100.999557,490.005096 101.346802,490.083099 
	C102.401123,490.841919 103.108192,491.522766 103.815254,492.203583 
	C103.815254,492.203583 103.866776,492.014740 103.872589,492.371246 
	C104.019745,493.066345 104.161072,493.404968 104.177597,493.851471 
	C104.052795,493.959381 103.803337,494.175354 103.803329,494.175354 
z"/>
<path fill="#F4D517" opacity="1.000000" stroke="none" 
	d="
M592.343933,384.987976 
	C592.209717,384.467316 592.359436,383.902130 592.752563,383.162598 
	C592.873230,383.639984 592.750549,384.291718 592.343933,384.987976 
z"/>
<path fill="#DAC842" opacity="1.000000" stroke="none" 
	d="
M136.993469,529.007080 
	C136.252884,528.672607 135.632843,528.215271 134.913269,527.471252 
	C134.813705,527.184509 135.042267,526.943542 135.425003,526.933960 
	C136.323624,527.495850 136.839508,528.067261 137.355377,528.638733 
	C137.355392,528.638733 137.114014,528.884216 136.993469,529.007080 
z"/>
<path fill="#DAC842" opacity="1.000000" stroke="none" 
	d="
M114.942596,507.065277 
	C114.232491,506.682251 113.636673,506.188782 112.971870,505.396179 
	C112.902885,505.097076 113.124512,504.873810 113.505707,504.878418 
	C114.354156,505.501129 114.821419,506.119232 115.288681,506.737305 
	C115.288681,506.737305 115.056885,506.954834 114.942596,507.065277 
z"/>
<path fill="#F4D616" opacity="1.000000" stroke="none" 
	d="
M584.234009,414.777191 
	C584.127686,414.115753 584.291260,413.251251 584.709106,412.168579 
	C584.810242,412.824951 584.657104,413.699554 584.234009,414.777191 
z"/>
<path fill="#F4D616" opacity="1.000000" stroke="none" 
	d="
M583.204773,417.790283 
	C583.103821,417.126160 583.277771,416.263275 583.709595,415.188416 
	C583.804810,415.848145 583.642212,416.719849 583.204773,417.790283 
z"/>
<path fill="#DAC842" opacity="1.000000" stroke="none" 
	d="
M170.213745,554.056213 
	C170.688599,553.956238 171.257080,554.171326 171.951431,554.671265 
	C171.487320,554.761169 170.897339,554.566223 170.213745,554.056213 
z"/>
<path fill="#F2D713" opacity="1.000000" stroke="none" 
	d="
M552.205505,477.812134 
	C552.134583,477.420319 552.317871,476.872345 552.746643,476.159973 
	C552.814636,476.549072 552.637146,477.102509 552.205505,477.812134 
z"/>
<path fill="#DAC842" opacity="1.000000" stroke="none" 
	d="
M105.091393,495.903503 
	C104.599197,495.617432 104.273094,495.170380 103.875160,494.449341 
	C103.803337,494.175354 104.052795,493.959381 104.402969,493.999146 
	C105.031288,494.498749 105.309433,494.958618 105.587570,495.418488 
	C105.587563,495.418488 105.257477,495.742554 105.091393,495.903503 
z"/>
<path fill="#D8C43F" opacity="1.000000" stroke="none" 
	d="
M555.128418,470.115112 
	C555.144897,470.606567 555.082458,471.029877 554.998901,471.776489 
	C554.977844,472.099731 554.567078,472.122620 554.246521,472.033020 
	C553.925964,471.943420 553.690552,471.726990 553.766541,471.454834 
	C554.192627,470.758148 554.542725,470.333557 554.892822,469.908997 
	C554.892883,469.909027 555.049377,470.047028 555.128418,470.115112 
z"/>
<path fill="#D8C43F" opacity="1.000000" stroke="none" 
	d="
M495.900360,536.903320 
	C495.596832,537.375854 495.158264,537.709473 494.447083,538.118408 
	C494.174438,538.193665 493.988647,537.981140 494.030457,537.636536 
	C494.546051,537.023926 495.019897,536.755920 495.493713,536.487915 
	C495.493713,536.487915 495.765320,536.764343 495.900360,536.903320 
z"/>
<path fill="#DAC842" opacity="1.000000" stroke="none" 
	d="
M180.017212,559.881958 
	C180.212494,559.716980 180.425812,559.795105 180.906677,560.086853 
	C180.794571,560.242004 180.414917,560.183472 180.017212,559.881958 
z"/>
<path fill="#D8C43F" opacity="1.000000" stroke="none" 
	d="
M554.041870,472.053528 
	C554.008057,472.441162 553.822083,472.691742 553.424561,473.071289 
	C553.249207,473.227173 553.105103,473.094879 553.073914,472.779419 
	C553.258667,472.218323 553.474609,471.972656 553.690552,471.726990 
	C553.690552,471.726990 553.925964,471.943420 554.041870,472.053528 
z"/>
<path fill="#D8C43F" opacity="1.000000" stroke="none" 
	d="
M542.054443,489.064850 
	C541.999756,489.436737 541.804504,489.679230 541.386780,490.035278 
	C541.202454,490.179443 541.052795,490.045685 541.035156,489.735718 
	C541.171631,489.110138 541.413696,488.892303 541.743713,488.772217 
	C541.743713,488.772217 541.951965,488.966125 542.054443,489.064850 
z"/>
<path fill="#DAC842" opacity="1.000000" stroke="none" 
	d="
M152.989151,542.000000 
	C152.591568,541.979919 152.337891,541.793945 152.009430,541.337585 
	C151.884811,541.135254 152.008011,540.994080 152.314972,540.979248 
	C152.837112,541.210388 153.052277,541.456421 153.267441,541.702454 
	C153.267441,541.702454 153.083206,541.902039 152.989151,542.000000 
z"/>
<path fill="#DAC842" opacity="1.000000" stroke="none" 
	d="
M178.138489,559.018921 
	C178.327789,558.813965 178.524567,558.833740 178.971619,559.016846 
	C178.863266,559.201355 178.504623,559.222473 178.138489,559.018921 
z"/>
<path fill="#D8C43F" opacity="1.000000" stroke="none" 
	d="
M529.004028,505.014221 
	C528.978821,505.409210 528.791199,505.661438 528.348511,506.002441 
	C528.152161,506.134979 527.922119,505.923981 527.899048,505.587952 
	C528.083130,504.976135 528.354553,504.798981 528.690369,504.720428 
	C528.690369,504.720428 528.900513,504.915161 529.004028,505.014221 
z"/>
<path fill="#D8C43F" opacity="1.000000" stroke="none" 
	d="
M506.043854,528.052673 
	C505.990479,528.442993 505.784454,528.678162 505.341919,529.008179 
	C505.147034,529.139587 504.921844,528.907288 504.909332,528.563721 
	C505.096649,527.935730 505.367432,527.761719 505.709167,527.698181 
	C505.709167,527.698181 505.932892,527.933960 506.043854,528.052673 
z"/>
<path fill="#D8C43F" opacity="1.000000" stroke="none" 
	d="
M490.091187,541.105591 
	C489.996216,541.453918 489.786713,541.686157 489.330780,541.999390 
	C489.129608,542.121216 488.954285,541.940002 488.986328,541.629150 
	C489.237000,541.037537 489.524170,540.892456 489.879852,540.883057 
	C489.879852,540.883057 490.021912,541.030334 490.091187,541.105591 
z"/>
<path fill="#332605" opacity="1.000000" stroke="none" 
	d="
M583.491577,408.935120 
	C584.801697,401.937012 586.646362,394.741882 587.907043,387.445862 
	C590.691101,371.334045 593.310730,355.190674 595.704712,339.016846 
	C596.346313,334.681580 595.843262,330.185974 596.055054,325.773071 
	C596.128296,324.247070 596.775940,322.748657 597.548218,321.186096 
	C598.070007,351.107147 593.267578,380.280457 583.491577,408.935120 
z"/>
<path fill="#332605" opacity="1.000000" stroke="none" 
	d="
M570.452332,440.971924 
	C569.524536,433.121033 574.717346,427.431793 578.662598,421.038086 
	C576.267700,427.582794 573.504211,434.177673 570.452332,440.971924 
z"/>
<path fill="#332605" opacity="1.000000" stroke="none" 
	d="
M553.766541,471.454834 
	C553.474609,471.972656 553.258667,472.218323 553.002197,472.712921 
	C552.961609,472.961884 552.540771,473.111481 552.318115,473.126770 
	C553.220398,467.206726 556.405518,462.423798 560.866211,458.171356 
	C559.185791,461.879059 557.125244,465.557098 554.978760,469.572083 
	C554.542725,470.333557 554.192627,470.758148 553.766541,471.454834 
z"/>
<path fill="#332605" opacity="1.000000" stroke="none" 
	d="
M561.492065,458.006226 
	C562.628357,455.176117 564.051758,452.163940 565.836426,449.145447 
	C564.724915,452.034149 563.252075,454.929169 561.492065,458.006226 
z"/>
<path fill="#332605" opacity="1.000000" stroke="none" 
	d="
M579.423340,420.221344 
	C580.003845,417.461670 580.850647,414.423492 582.098267,411.372162 
	C581.562622,414.220306 580.626160,417.081573 579.423340,420.221344 
z"/>
<path fill="#332605" opacity="1.000000" stroke="none" 
	d="
M566.429932,448.950623 
	C567.257812,446.489349 568.364685,443.823700 569.839722,441.152466 
	C569.041504,443.679962 567.875183,446.213104 566.429932,448.950623 
z"/>
<path fill="#332605" opacity="1.000000" stroke="none" 
	d="
M582.706482,411.088867 
	C582.533386,410.648376 582.601807,410.021576 582.988647,409.266663 
	C583.187317,409.726562 583.067627,410.314514 582.706482,411.088867 
z"/>
<path fill="#332605" opacity="1.000000" stroke="none" 
	d="
M73.875290,444.776886 
	C71.488708,440.523773 69.161598,435.874634 66.591934,430.976074 
	C61.155483,414.277161 55.390049,397.981262 50.917198,381.337982 
	C45.719296,361.996796 44.237865,342.058899 44.097641,321.601868 
	C44.754108,322.291168 45.892551,323.420502 45.911148,324.568024 
	C46.307430,349.016479 49.356651,373.101868 56.764046,396.431305 
	C61.100719,410.089600 66.507156,423.407776 71.408600,436.887573 
	C72.309105,439.364075 73.095612,441.882019 73.875290,444.776886 
z"/>
<path fill="#FEFEFE" opacity="1.000000" stroke="none" 
	d="
M496.988464,227.680328 
	C499.607391,227.815826 502.226288,227.951340 504.290985,228.058167 
	C417.292236,314.931732 330.105164,401.993378 243.254410,488.719177 
	C243.261337,488.805725 243.081146,487.603302 243.080780,486.400818 
	C243.054306,402.270264 243.038803,318.139709 243.049789,234.009171 
	C243.050049,232.048447 243.361633,230.087769 244.244431,227.971985 
	C328.477112,227.836609 411.993378,227.856628 495.509613,227.867874 
	C496.002563,227.867935 496.495514,227.745529 496.988464,227.680328 
z"/>
<path fill="#FEFEFE" opacity="1.000000" stroke="none" 
	d="
M273.025024,491.347260 
	C270.207764,491.208191 267.390533,491.069092 265.405762,490.971130 
	C299.892883,456.523071 334.799194,421.656342 369.537506,386.957397 
	C403.622772,421.023895 438.462280,455.844208 473.739685,491.102142 
	C470.950989,491.102142 468.389709,491.102142 464.940613,491.140503 
	C401.535614,491.172943 339.018524,491.165955 276.501404,491.168793 
	C275.342621,491.168823 274.183807,491.285187 273.025024,491.347260 
z"/>
<path fill="#FCFCFC" opacity="1.000000" stroke="none" 
	d="
M232.988068,227.698517 
	C234.804489,227.822098 236.620895,227.945663 237.667587,228.016876 
	C201.392715,264.223938 164.778336,300.769867 128.496017,336.984344 
	C128.496017,301.536530 128.496017,264.990814 129.218475,228.155273 
	C164.289993,227.809814 198.639023,227.754166 232.988068,227.698517 
z"/>
<path fill="#FBFBFB" opacity="1.000000" stroke="none" 
	d="
M353.952972,214.798309 
	C349.807831,214.679016 345.662720,214.457779 341.517548,214.456985 
	C314.883362,214.451874 288.249207,214.497955 261.615021,214.513504 
	C260.323639,214.514267 259.032166,214.386017 258.084656,214.336014 
	C291.242004,181.229172 324.453430,148.068344 357.598236,114.974052 
	C357.648804,115.524315 357.857574,116.737869 357.857697,117.951439 
	C357.860901,148.583054 357.872314,179.214813 357.739746,209.845901 
	C357.733002,211.404984 356.453979,212.958557 355.133850,214.557800 
	C354.317871,214.666718 354.135406,214.732513 353.952972,214.798309 
z"/>
<path fill="#111111" opacity="1.000000" stroke="none" 
	d="
M496.853699,227.317047 
	C496.495514,227.745529 496.002563,227.867935 495.509613,227.867874 
	C411.993378,227.856628 328.477112,227.836609 244.558212,227.735092 
	C246.219681,227.102722 248.283295,226.072906 250.347977,226.070801 
	C330.586517,225.989182 410.825134,225.994873 491.063721,226.041031 
	C492.948975,226.042114 494.833893,226.636276 496.853699,227.317047 
z"/>
<path fill="#070707" opacity="1.000000" stroke="none" 
	d="
M273.041962,491.626892 
	C274.183807,491.285187 275.342621,491.168823 276.501404,491.168793 
	C339.018524,491.165955 401.535614,491.172943 464.514282,491.255432 
	C464.977753,491.703156 464.979706,492.074371 464.521912,492.723267 
	C400.376770,493.009064 336.691376,493.017212 273.005951,493.025360 
	C273.023590,492.652405 273.041229,492.279480 273.041962,491.626892 
z"/>
<path fill="#111111" opacity="1.000000" stroke="none" 
	d="
M232.856918,227.332550 
	C198.639023,227.754166 164.289993,227.809814 129.476410,227.805862 
	C130.212402,227.164917 131.411469,226.079147 132.613617,226.075729 
	C165.100540,225.983459 197.587769,225.994492 230.074875,226.042465 
	C230.958954,226.043777 231.842163,226.645081 232.856918,227.332550 
z"/>
<path fill="#252525" opacity="1.000000" stroke="none" 
	d="
M273.308350,493.309967 
	C336.691376,493.017212 400.376770,493.009064 464.530731,493.002075 
	C463.434937,493.333405 461.870819,493.951141 460.306213,493.952393 
	C399.385071,494.001221 338.463898,493.996338 277.542725,493.977173 
	C276.232025,493.976776 274.921417,493.727661 273.308350,493.309967 
z"/>
<path fill="#332605" opacity="1.000000" stroke="none" 
	d="
M90.987457,475.507690 
	C88.092667,470.925690 85.434807,466.572571 82.526917,461.994019 
	C79.474998,456.473846 76.673103,451.179108 73.818451,445.532135 
	C74.733109,445.906189 76.036484,446.431702 76.611031,447.392853 
	C79.417175,452.087433 82.447945,456.719696 84.579597,461.723236 
	C86.355888,465.892578 87.852409,465.293396 90.747299,462.708527 
	C90.489204,463.640991 89.998665,464.579041 90.020966,465.504730 
	C90.068779,467.488861 89.653282,470.533875 90.714561,471.257965 
	C94.811020,474.052673 95.324318,478.487366 96.959641,482.819641 
	C95.034798,480.722565 93.129593,478.229614 90.987457,475.507690 
z"/>
<path fill="#332605" opacity="1.000000" stroke="none" 
	d="
M211.636749,575.718994 
	C207.265472,573.678528 203.263794,571.690002 199.064728,569.414062 
	C200.626251,569.445251 202.493332,569.488342 204.125839,570.129150 
	C212.410080,573.380981 220.648239,576.752502 228.863403,580.176086 
	C230.210449,580.737427 231.362488,581.766785 232.757034,582.905396 
	C225.941711,580.744324 218.974014,578.257568 211.636749,575.718994 
z"/>
<path fill="#332605" opacity="1.000000" stroke="none" 
	d="
M528.798462,504.400085 
	C528.354553,504.798981 528.083130,504.976135 527.784912,505.481506 
	C525.372620,508.107971 523.051331,510.504822 520.416260,513.017944 
	C522.705078,509.475769 525.359253,505.852509 527.893005,502.146973 
	C529.704407,499.497803 531.151367,496.572266 533.169495,494.104065 
	C534.063354,493.010803 535.967102,492.743286 537.844849,492.177094 
	C535.153687,496.195435 532.030151,500.137604 528.798462,504.400085 
z"/>
<path fill="#332605" opacity="1.000000" stroke="none" 
	d="
M153.575317,541.811829 
	C153.052277,541.456421 152.837112,541.210388 152.377625,540.909546 
	C149.777817,538.838196 147.422318,536.821777 144.933350,534.498901 
	C147.702423,533.703491 150.486755,532.230713 151.572525,537.262756 
	C152.099487,539.705017 155.639374,541.497192 157.767395,543.944946 
	C156.440750,543.511169 155.161972,542.716187 153.575317,541.811829 
z"/>
<path fill="#332605" opacity="1.000000" stroke="none" 
	d="
M489.971680,540.677185 
	C489.524170,540.892456 489.237000,541.037537 488.900757,541.536499 
	C486.504822,543.241760 484.226440,544.728760 481.617249,546.297546 
	C483.259155,539.081726 484.539795,538.010559 490.114014,539.498901 
	C490.424500,539.995544 490.284332,540.255188 489.971680,540.677185 
z"/>
<path fill="#332605" opacity="1.000000" stroke="none" 
	d="
M115.578598,506.893646 
	C114.821419,506.119232 114.354156,505.501129 113.616455,504.766724 
	C112.791908,503.801788 112.237801,502.953156 111.596313,501.818481 
	C117.274651,502.934509 119.535454,507.725342 121.952011,512.721863 
	C119.913406,511.079163 117.890953,509.064575 115.578598,506.893646 
z"/>
<path fill="#332605" opacity="1.000000" stroke="none" 
	d="
M105.856201,495.605164 
	C105.309433,494.958618 105.031288,494.498749 104.527771,493.891235 
	C104.161072,493.404968 104.019745,493.066345 103.825928,492.457275 
	C105.207977,492.000610 106.642517,491.814423 107.876320,491.654297 
	C109.230278,494.855743 110.465179,497.775696 111.543335,501.063538 
	C109.632675,499.551544 107.878754,497.671692 105.856201,495.605164 
z"/>
<path fill="#332605" opacity="1.000000" stroke="none" 
	d="
M472.729980,552.075439 
	C470.132233,554.121582 467.136536,556.138184 463.937012,558.422729 
	C462.743622,559.146667 461.754089,559.602661 460.441223,560.112976 
	C462.918884,555.549561 467.019409,552.886230 472.729980,552.075439 
z"/>
<path fill="#332605" opacity="1.000000" stroke="none" 
	d="
M458.064209,561.095581 
	C453.607300,563.804138 448.738739,566.475586 443.512817,569.182373 
	C447.987854,566.497986 452.820221,563.778198 458.064209,561.095581 
z"/>
<path fill="#332605" opacity="1.000000" stroke="none" 
	d="
M137.611465,528.720337 
	C136.839508,528.067261 136.323624,527.495850 135.537231,526.811523 
	C133.222809,524.693909 131.178894,522.689148 129.024857,520.370117 
	C134.003265,520.753235 136.529144,524.522034 138.905731,528.794800 
	C138.534027,529.044556 138.200790,528.923218 137.611465,528.720337 
z"/>
<path fill="#332605" opacity="1.000000" stroke="none" 
	d="
M186.948166,563.456665 
	C186.404785,563.112427 186.168289,562.909180 185.810089,562.522217 
	C190.094574,564.359009 194.477295,566.406921 198.872253,568.813110 
	C195.015823,567.304382 191.147186,565.437439 186.948166,563.456665 
z"/>
<path fill="#332605" opacity="1.000000" stroke="none" 
	d="
M475.550964,551.068359 
	C474.785553,551.540710 474.234894,551.771912 473.394165,552.073914 
	C473.495514,550.387024 473.886963,548.629272 474.305573,546.749512 
	C476.411865,546.548889 478.467773,546.353027 480.909485,546.265137 
	C479.452148,547.857788 477.608917,549.342468 475.550964,551.068359 
z"/>
<path fill="#332605" opacity="1.000000" stroke="none" 
	d="
M168.936829,551.730225 
	C165.325027,549.677246 161.702103,547.268677 157.908661,544.572388 
	C161.467331,546.647949 165.196503,549.011292 168.936829,551.730225 
z"/>
<path fill="#332605" opacity="1.000000" stroke="none" 
	d="
M551.775146,473.096436 
	C551.130249,474.832672 550.127502,476.567535 549.035156,478.625519 
	C547.852417,480.240265 546.759155,481.531891 545.381836,482.973755 
	C545.176392,478.503265 547.733398,475.444153 551.775146,473.096436 
z"/>
<path fill="#332605" opacity="1.000000" stroke="none" 
	d="
M103.845612,491.830811 
	C103.108192,491.522766 102.401123,490.841919 101.440750,490.001709 
	C100.068108,488.157135 98.948784,486.471954 97.706390,484.464478 
	C102.202301,484.412048 102.520020,488.381592 103.845612,491.830811 
z"/>
<path fill="#332605" opacity="1.000000" stroke="none" 
	d="
M519.769531,513.096680 
	C517.991943,515.355164 515.848083,517.606506 513.396973,519.987793 
	C513.479309,516.234558 515.794067,514.080627 519.769531,513.096680 
z"/>
<path fill="#332605" opacity="1.000000" stroke="none" 
	d="
M512.739136,520.066040 
	C511.425995,521.771240 509.735840,523.454224 507.750854,525.253296 
	C509.091400,523.594177 510.726776,521.818970 512.739136,520.066040 
z"/>
<path fill="#332605" opacity="1.000000" stroke="none" 
	d="
M502.777954,529.097656 
	C501.381714,530.780334 499.612091,532.422729 497.522217,534.145630 
	C498.936157,532.503235 500.670349,530.780334 502.777954,529.097656 
z"/>
<path fill="#332605" opacity="1.000000" stroke="none" 
	d="
M495.637756,536.235229 
	C495.019897,536.755920 494.546051,537.023926 493.937744,537.530151 
	C493.457458,537.899902 493.111725,538.031433 492.492920,538.213867 
	C493.626099,536.868835 495.032288,535.472900 496.821320,534.143799 
	C496.730042,534.801270 496.255920,535.391846 495.637756,536.235229 
z"/>
<path fill="#332605" opacity="1.000000" stroke="none" 
	d="
M144.842316,533.851135 
	C143.273651,533.036560 141.730927,531.850281 140.048462,530.366516 
	C141.561890,531.205811 143.215073,532.342590 144.842316,533.851135 
z"/>
<path fill="#332605" opacity="1.000000" stroke="none" 
	d="
M505.847229,527.448853 
	C505.367432,527.761719 505.096649,527.935730 504.798462,528.445923 
	C504.358887,528.807251 504.017670,528.942810 503.404785,529.125732 
	C504.302399,527.859619 505.471680,526.546143 507.004761,525.343506 
	C506.907471,526.036011 506.446350,526.617798 505.847229,527.448853 
z"/>
<path fill="#332605" opacity="1.000000" stroke="none" 
	d="
M541.813110,488.499390 
	C541.413696,488.892303 541.171631,489.110138 540.960754,489.668365 
	C540.201843,490.605682 539.499634,491.300415 538.526794,492.122406 
	C539.332153,490.543488 540.408142,488.837280 541.841675,487.143250 
	C542.093628,487.512482 541.988037,487.869537 541.813110,488.499390 
z"/>
<path fill="#332605" opacity="1.000000" stroke="none" 
	d="
M544.760986,483.099121 
	C544.338745,484.354279 543.544128,485.623322 542.455688,487.029480 
	C542.904053,485.815430 543.646240,484.464203 544.760986,483.099121 
z"/>
<path fill="#332605" opacity="1.000000" stroke="none" 
	d="
M124.921501,515.754578 
	C124.004852,515.283997 123.084244,514.459778 122.033539,513.351562 
	C122.908142,513.845398 123.912842,514.623169 124.921501,515.754578 
z"/>
<path fill="#332605" opacity="1.000000" stroke="none" 
	d="
M128.933258,519.736328 
	C128.007370,519.275146 127.073906,518.461121 126.018837,517.358765 
	C126.906715,517.841431 127.916183,518.612488 128.933258,519.736328 
z"/>
<path fill="#332605" opacity="1.000000" stroke="none" 
	d="
M185.709732,562.017639 
	C185.249252,562.126953 184.695145,561.917480 183.976944,561.455444 
	C184.413925,561.368286 185.015015,561.533569 185.709732,562.017639 
z"/>
<path fill="#332605" opacity="1.000000" stroke="none" 
	d="
M491.884338,538.191895 
	C491.863220,538.630066 491.499939,539.031006 490.870789,539.496094 
	C490.917328,539.091675 491.229736,538.623169 491.884338,538.191895 
z"/>
<path fill="#332605" opacity="1.000000" stroke="none" 
	d="
M442.935364,569.173401 
	C442.962830,569.398376 442.731598,569.652161 442.233368,569.918335 
	C442.203156,569.687805 442.439911,569.445007 442.935364,569.173401 
z"/>
<path fill="#080808" opacity="1.000000" stroke="none" 
	d="
M354.056274,214.980545 
	C354.135406,214.732513 354.317871,214.666718 354.771118,214.707367 
	C354.747772,214.930161 354.453674,215.046478 354.056274,214.980545 
z"/>
<path fill="#332605" opacity="1.000000" stroke="none" 
	d="
M459.903992,560.147461 
	C459.933289,560.357605 459.709259,560.615540 459.218292,560.902100 
	C459.184448,560.685608 459.417603,560.440430 459.903992,560.147461 
z"/>
<path fill="#332605" opacity="1.000000" stroke="none" 
	d="
M125.860115,516.858398 
	C125.648895,516.930603 125.343254,516.753479 124.961990,516.312866 
	C125.179482,516.235901 125.472588,516.422424 125.860115,516.858398 
z"/>
<path fill="#332605" opacity="1.000000" stroke="none" 
	d="
M139.857254,529.849854 
	C139.639618,529.938782 139.320572,529.778870 138.921524,529.355103 
	C139.146301,529.261230 139.451065,529.431091 139.857254,529.849854 
z"/>
</svg>